HIERARCHY
ROOT hip
{
	OFFSET 0.000000 0.000000 0.000000 
	CHANNELS 6 Xposition Yposition Zposition Xrotation Zrotation Yrotation
	JOINT abdomen
	{
		OFFSET 0.000000 3.402643 0.000000 
		CHANNELS 3 Xrotation Zrotation Yrotation
		JOINT chest
		{
			OFFSET 0.000000 8.438565 -0.680529 
			CHANNELS 3 Xrotation Zrotation Yrotation
			JOINT neck
			{
				OFFSET 0.000000 10.207942 -0.272212 
				CHANNELS 3 Xrotation Zrotation Yrotation
				JOINT head
				{
					OFFSET 0.000000 3.130431 0.000000 
					CHANNELS 3 Xrotation Zrotation Yrotation
					End Site
					{
						OFFSET 0.000000 3.130435 0.000000 
					}
				}
			}
			JOINT lCollar
			{
				OFFSET 3.470700 6.669187 -0.816635 
				CHANNELS 3 Yrotation Zrotation Xrotation
				JOINT lShldr
				{
					OFFSET 3.198488 0.000000 0.000000 
					CHANNELS 3 Zrotation Yrotation Xrotation
					JOINT lForeArm
					{
						OFFSET 10.139888 0.000000 0.000000 
						CHANNELS 3 Yrotation Zrotation Xrotation
						JOINT lHand
						{
							OFFSET 8.370511 0.000000 0.000000 
							CHANNELS 3 Zrotation Yrotation Xrotation
							End Site
							{
								OFFSET 4.083176 0.000000 0.000000 
							}
						}
					}
				}
			}
			JOINT rCollar
			{
				OFFSET -3.470700 6.669187 -0.816635 
				CHANNELS 3 Yrotation Zrotation Xrotation
				JOINT rShldr
				{
					OFFSET -3.198488 0.000000 0.000000 
					CHANNELS 3 Zrotation Yrotation Xrotation
					JOINT rForeArm
					{
						OFFSET -10.139888 0.000000 0.000000 
						CHANNELS 3 Yrotation Zrotation Xrotation
						JOINT rHand
						{
							OFFSET -8.370511 0.000000 0.000000 
							CHANNELS 3 Zrotation Yrotation Xrotation
							End Site
							{
								OFFSET -4.083176 0.000000 0.000000 
							}
						}
					}
				}
			}
		}
	}
	JOINT lThigh
	{
		OFFSET 5.308129 -1.633274 1.361059 
		CHANNELS 3 Xrotation Zrotation Yrotation
		JOINT lShin
		{
			OFFSET -2.041588 -20.007561 0.000000 
			CHANNELS 3 Xrotation Zrotation Yrotation
			JOINT lFoot
			{
				OFFSET 0.000000 -19.190928 -1.224953 
				CHANNELS 3 Xrotation Yrotation Zrotation
				End Site
				{
					OFFSET 0.000000 -2.449906 4.627600 
				}
			}
		}
	}
	JOINT rThigh
	{
		OFFSET -5.308129 -1.633274 1.361059 
		CHANNELS 3 Xrotation Zrotation Yrotation
		JOINT rShin
		{
			OFFSET 2.041588 -20.007561 0.000000 
			CHANNELS 3 Xrotation Zrotation Yrotation
			JOINT rFoot
			{
				OFFSET 0.000000 -19.190928 -1.224953 
				CHANNELS 3 Xrotation Yrotation Zrotation
				End Site
				{
					OFFSET 0.000000 -2.449906 4.627600 
				}
			}
		}
	}
}
MOTION
Frames: 13
Frame Time: 0.033333
0.356717 48.644810 0.356717 0.000000 0.000000 0.000000 24.566622 11.353989 -7.078140 -0.106304 -0.585486 7.486454 29.358677 -12.400084 6.374710 10.524219 0.508720 -0.030344 9.681928 -11.604858 9.188313 36.342426 -80.477158 -60.925907 -63.977322 -2.957594 1.652844 35.032703 10.588747 -54.919262 13.658652 -0.717628 9.610873 56.179592 65.449013 -37.771709 63.141041 2.942616 1.669585 77.656387 41.529533 114.219666 -72.283661 17.773157 9.359574 102.667015 3.844990 -4.320895 -30.181267 -0.875208 2.671570 8.998085 -16.273540 -16.312283 114.795753 -4.639329 3.818410 -24.497824 6.142780 -11.701348 
0.356717 50.538128 0.356717 0.000000 0.000000 0.000000 24.566622 11.353989 -7.078140 -0.106304 -0.585486 7.486454 29.358677 -12.400084 6.374710 10.524219 0.508720 -0.030344 9.681928 -11.604858 9.188313 36.342426 -80.477158 -60.925907 -63.977322 -2.957594 1.652844 35.032703 10.588747 -54.919262 13.658652 -0.717628 9.610873 56.179592 65.449013 -37.771709 63.141041 2.942616 1.669585 77.656387 41.529533 114.219666 -64.525635 15.827852 8.076840 103.721413 3.932378 -4.280902 -40.934799 1.511046 0.850035 -1.280531 -16.810411 -16.587654 121.938408 -5.039660 3.499207 -3.399726 1.777944 -17.090437 
0.356717 51.848476 0.356717 0.000000 0.000000 0.000000 24.566622 11.353989 -7.078140 -0.106304 -0.585486 7.486454 29.358677 -12.400084 6.374710 10.524219 0.508720 -0.030344 9.681928 -11.604858 9.188313 36.342426 -80.477158 -60.925907 -63.977322 -2.957594 1.652844 35.032703 10.588747 -54.919262 13.658652 -0.717628 9.610873 56.179592 65.449013 -37.771709 63.141041 2.942616 1.669585 77.656387 41.529533 114.219666 -56.781994 14.060695 6.532877 104.766190 3.991098 -4.263294 -51.616688 4.268558 -0.489780 -12.792115 -17.868254 -18.055126 125.022736 -5.185041 3.351552 7.135161 -2.021949 -19.426134 
0.356717 52.686867 0.356717 0.000000 0.000000 0.000000 24.566622 11.353989 -7.078140 -0.106304 -0.585486 7.486454 29.358677 -12.400084 6.374710 10.524219 0.508720 -0.030344 9.681928 -11.604858 9.188313 36.342426 -80.477158 -60.925907 -63.977322 -2.957594 1.652844 35.032703 10.588747 -54.919262 13.658652 -0.717628 9.610873 56.179592 65.449013 -37.771709 63.141041 2.942616 1.669585 77.656387 41.529533 114.219666 -49.019070 12.723174 4.980247 105.763306 4.049646 -4.214609 -61.169617 6.976021 -1.465481 -26.796589 -20.292545 -21.208929 123.289558 -5.097542 3.435633 5.190550 -3.026326 -21.818020 
0.356717 52.825672 0.356717 0.000000 0.000000 0.000000 24.566622 11.353989 -7.078140 -0.106304 -0.585486 7.486454 29.358677 -12.400084 6.374710 10.524219 0.508720 -0.030344 9.681928 -11.604858 9.188313 36.342426 -80.477158 -60.925907 -63.977322 -2.957594 1.652844 35.032703 10.588747 -54.919262 13.658652 -0.717628 9.610873 56.179592 65.449013 -37.771709 63.141041 2.942616 1.669585 77.656387 41.529533 114.219666 -41.193878 11.940979 3.717404 106.593872 4.098415 -4.184742 -68.478447 9.137078 -2.445437 -42.557270 -24.246405 -24.690865 119.364082 -4.892540 3.628341 -2.135790 -0.570473 -25.219700 
0.356717 52.803459 0.356717 0.000000 0.000000 0.000000 24.566622 11.353989 -7.078140 -0.106304 -0.585486 7.486454 29.358677 -12.400084 6.374710 10.524219 0.508720 -0.030344 9.681928 -11.604858 9.188313 36.342426 -80.477158 -60.925907 -63.977322 -2.957594 1.652844 35.032703 10.588747 -54.919262 13.658652 -0.717628 9.610873 56.179592 65.449013 -37.771709 63.141041 2.942616 1.669585 77.656387 41.529533 114.219666 -33.314579 11.814294 3.071768 107.238831 4.147255 -4.152326 -72.466202 10.216476 -3.936721 -58.413376 -28.919333 -27.059610 114.335739 -4.599626 3.855498 -11.023982 5.924353 -27.086159 
0.356717 53.425323 0.356717 0.000000 0.000000 0.000000 24.566622 11.353989 -7.078140 -0.106304 -0.585486 7.486454 29.358677 -12.400084 6.374710 10.524219 0.508720 -0.030344 9.681928 -11.604858 9.188313 36.342426 -80.477158 -60.925907 -63.977322 -2.957594 1.652844 35.032703 10.588747 -54.919262 13.658652 -0.717628 9.610873 56.179592 65.449013 -37.771709 63.141041 2.942616 1.669585 77.656387 41.529533 114.219666 -24.544064 12.261830 3.312853 107.365219 4.166306 -4.156207 -73.052368 10.089931 -6.185209 -72.751389 -32.955589 -27.516792 109.388451 -4.315955 4.053921 -19.028608 13.450641 -25.229679 
0.356717 53.691826 0.356717 0.000000 0.000000 0.000000 24.566622 11.353989 -7.078140 -0.106304 -0.585486 7.486454 29.358677 -12.400084 6.374710 10.524219 0.508720 -0.030344 9.681928 -11.604858 9.188313 36.342426 -80.477158 -60.925907 -63.977322 -2.957594 1.652844 35.032703 10.588747 -54.919262 13.658652 -0.717628 9.610873 56.179592 65.449013 -37.771709 63.141041 2.942616 1.669585 77.656387 41.529533 114.219666 -14.693274 13.033106 4.368354 106.984146 4.136923 -4.174354 -71.176910 8.720760 -8.831920 -83.445114 -34.782440 -26.266703 105.666649 -4.071784 4.166986 -24.384995 17.756523 -21.320860 
0.356717 52.648006 0.356717 0.000000 0.000000 0.000000 24.566622 11.353989 -7.078140 -0.106304 -0.585486 7.486454 29.358677 -12.400084 6.374710 10.524219 0.508720 -0.030344 9.681928 -11.604858 9.188313 36.342426 -80.477158 -60.925907 -63.977322 -2.957594 1.652844 35.032703 10.588747 -54.919262 13.658652 -0.717628 9.610873 56.179592 65.449013 -37.771709 63.141041 2.942616 1.669585 77.656387 41.529533 114.219666 -4.716459 13.816773 6.114113 106.466629 4.107801 -4.181581 -67.298141 5.770623 -11.238810 -87.868340 -32.887581 -23.867207 103.126381 -3.934644 4.244949 -24.729540 16.821369 -18.251734 
0.356717 51.048943 0.356717 0.000000 0.000000 0.000000 24.566622 11.353989 -7.078140 -0.106304 -0.585486 7.486454 29.358677 -12.400084 6.374710 10.524219 0.508720 -0.030344 9.681928 -11.604858 9.188313 36.342426 -80.477158 -60.925907 -63.977322 -2.957594 1.652844 35.032703 10.588747 -54.919262 13.658652 -0.717628 9.610873 56.179592 65.449013 -37.771709 63.141041 2.942616 1.669585 77.656387 41.529533 114.219666 4.391952 14.399014 8.238345 106.183235 4.071257 -4.208273 -61.869713 1.356086 -12.561037 -86.604424 -28.118925 -20.846281 101.212814 -3.778663 4.318364 -21.963816 12.612017 -15.534563 
0.356717 48.955738 0.356717 0.000000 0.000000 0.000000 24.566622 11.353989 -7.078140 -0.106304 -0.585486 7.486454 29.358677 -12.400084 6.374710 10.524219 0.508720 -0.030344 9.681928 -11.604858 9.188313 36.342426 -80.477158 -60.925907 -63.977322 -2.957594 1.652844 35.032703 10.588747 -54.919262 13.658652 -0.717628 9.610873 56.179592 65.449013 -37.771709 63.141041 2.942616 1.669585 77.656387 41.529533 114.219666 11.623656 14.779802 10.456975 106.487106 4.081600 -4.177623 -55.093601 -4.073825 -12.168973 -82.200714 -22.789040 -17.616415 100.197937 -3.690974 4.351619 -19.609554 7.778047 -12.187237 
0.356717 47.467728 0.356717 0.000000 0.000000 0.000000 24.566622 11.353989 -7.078140 -0.106304 -0.585486 7.486454 29.358677 -12.400084 6.374710 10.524219 0.508720 -0.030344 9.681928 -11.604858 9.188313 36.342426 -80.477158 -60.925907 -63.977322 -2.957594 1.652844 35.032703 10.588747 -54.919262 13.658652 -0.717628 9.610873 56.179592 65.449013 -37.771709 63.141041 2.942616 1.669585 77.656387 41.529533 114.219666 15.970780 15.074934 12.396736 107.727982 4.168961 -4.125601 -46.942249 -9.765718 -9.722585 -77.302727 -18.934635 -14.919922 100.421692 -3.739621 4.336109 -21.253229 4.052097 -8.718668 
0.356717 48.295017 0.356717 0.000000 0.000000 0.000000 24.566622 11.353989 -7.078140 -0.106304 -0.585486 7.486454 29.358677 -12.400084 6.374710 10.524219 0.508720 -0.030344 9.681928 -11.604858 9.188313 36.342426 -80.477158 -60.925907 -63.977322 -2.957594 1.652844 35.032703 10.588747 -54.919262 13.658652 -0.717628 9.610873 56.179592 65.449013 -37.771709 63.141041 2.942616 1.669585 77.656387 41.529533 114.219666 13.161293 15.818781 14.027265 112.692703 4.471408 -3.950683 -28.459663 -17.875069 -0.868442 -72.899185 -16.493851 -12.769468 102.042961 -3.837313 4.286016 -28.120655 0.625416 -5.645902 
